<?xml version="1.0" encoding="iso-8859-1"?>
<!-- Generator: Adobe Illustrator 18.0.0, SVG Export Plug-In . SVG Version: 6.00 Build 0)  -->
<!DOCTYPE svg PUBLIC "-//W3C//DTD SVG 1.1//EN" "http://www.w3.org/Graphics/SVG/1.1/DTD/svg11.dtd">
<svg version="1.1" id="Capa_1" xmlns="http://www.w3.org/2000/svg" xmlns:xlink="http://www.w3.org/1999/xlink" x="0px" y="0px"
	 viewBox="0 0 428 428" style="enable-background:new 0 0 428 428;" xml:space="preserve">
<path d="M405.634,306.532c6.685-6.781,10.368-15.742,10.368-25.269c0-12.519-6.607-24.033-16.97-30.52v-60.935
	c6.02-3.089,11.211-6.719,15.489-10.992c8.943-8.934,13.479-20.342,13.479-33.907c0-30.858-22.892-59.482-64.459-80.598
	C323.48,43.959,270.372,32.751,214,32.751c-56.373,0-109.48,11.208-149.542,31.559C22.892,85.427,0,114.05,0,144.909
	c0,13.565,4.535,24.973,13.479,33.908c4.607,4.602,10.273,8.459,16.894,11.696v59.374c-2.86,1.609-5.51,3.597-7.83,5.917
	c-6.797,6.797-10.54,15.839-10.54,25.459c0,9.834,3.967,18.757,10.381,25.26c-12.029,5.514-20.381,17.442-20.381,31.243
	c0,31.696,26.498,57.482,59.069,57.482h305.856c32.571,0,59.069-25.786,59.069-57.482
	C425.997,323.973,417.654,312.049,405.634,306.532z M44.372,238.82c15.61,5.907,33.57,3.991,47.646-5.763
	c6.292-4.359,13.673-6.664,21.344-6.664c7.678,0,15.062,2.304,21.353,6.663c8.654,5.997,18.795,9.167,29.327,9.167
	c10.525,0,20.663-3.169,29.316-9.166c6.292-4.359,13.673-6.664,21.344-6.664s15.052,2.304,21.343,6.663
	c8.654,5.997,18.792,9.167,29.317,9.167c10.532,0,20.673-3.169,29.326-9.166c6.292-4.359,13.676-6.664,21.354-6.664
	c7.671,0,15.052,2.304,21.343,6.663c8.654,5.997,18.792,9.167,29.317,9.167c6.331,0,12.518-1.155,18.33-3.374v18.295
	c-5.584,3.136-11.887,4.786-18.33,4.786c-7.659,0-15.041-2.306-21.349-6.667c-8.658-5.988-18.794-9.153-29.312-9.153
	c-10.524,0-20.663,3.165-29.321,9.153c-6.308,4.362-13.692,6.667-21.358,6.667c-7.659,0-15.041-2.306-21.349-6.667
	c-8.658-5.988-18.794-9.153-29.312-9.153s-20.653,3.165-29.312,9.153c-6.308,4.362-13.689,6.667-21.349,6.667
	c-7.666,0-15.051-2.306-21.358-6.667c-8.658-5.988-18.797-9.153-29.321-9.153c-10.518,0-20.653,3.165-29.313,9.154
	c-11.883,8.224-27.253,8.884-39.677,1.891V238.82z M44.372,196.04c35.752,11.346,90.317,11.292,154.861,11.22
	c9.754-0.01,39.3,0.01,44.099,0.01c59.014,0,108.663-0.785,141.7-11.706v27.87c-5.588,3.142-11.859,4.788-18.33,4.788
	c-7.662,0-15.043-2.308-21.344-6.674c-8.645-5.99-18.782-9.156-29.316-9.156c-10.541,0-20.682,3.166-29.327,9.156
	c-6.3,4.366-13.684,6.673-21.353,6.673c-7.662,0-15.043-2.308-21.344-6.674c-8.645-5.99-18.782-9.156-29.316-9.156
	s-20.672,3.166-29.317,9.156c-6.3,4.366-13.681,6.673-21.343,6.673c-7.669,0-15.053-2.308-21.354-6.674
	c-8.645-5.99-18.785-9.156-29.326-9.156c-10.534,0-20.672,3.166-29.317,9.156c-11.785,8.166-27.313,8.792-39.673,1.881V196.04z
	 M14,144.909c0-25.318,20.172-49.509,56.799-68.117C108.933,57.42,159.789,46.751,214,46.751S319.066,57.42,357.2,76.792
	c36.628,18.607,56.8,42.798,56.8,68.117c0,9.851-3.065,17.702-9.373,24.003c-24.533,24.507-94.667,24.429-175.846,24.349
	c-4.882-0.005-9.812-0.01-14.781-0.01s-9.899,0.005-14.781,0.01c-81.208,0.083-151.313,0.159-175.846-24.349
	C17.065,162.611,14,154.76,14,144.909z M32.315,265.844c0.322,0.337,2.096,1.623,2.668,1.996c8.486,5.42,18.105,8.119,27.718,8.119
	c10.246,0,20.483-3.07,29.313-9.181c6.308-4.362,13.689-6.667,21.349-6.667c7.666,0,15.051,2.306,21.358,6.667
	c8.658,5.988,18.797,9.153,29.321,9.153c10.518,0,20.653-3.165,29.312-9.153c6.308-4.362,13.689-6.667,21.349-6.667
	s15.041,2.306,21.349,6.667c8.658,5.988,18.794,9.153,29.312,9.153c10.524,0,20.663-3.165,29.321-9.153
	c6.308-4.362,13.692-6.667,21.358-6.667c7.659,0,15.041,2.306,21.349,6.667c8.658,5.988,18.794,9.153,29.312,9.153
	c9.603,0,18.98-2.67,27.07-7.691c0.824-0.502,2.429-1.61,2.54-1.696c3.568,3.965,5.69,9.181,5.69,14.72
	c0,5.875-2.291,11.401-6.455,15.565c-4.141,4.149-9.661,6.435-15.545,6.435h-332c-12.131,0-22-9.869-22-22
	C26.002,275.446,28.247,269.981,32.315,265.844z M244.262,317.263l-30.261,30.261l-30.267-30.261H244.262z M366.928,381.249H61.071
	c-24.852,0-45.069-19.506-45.069-43.482c0-11.306,9.586-20.503,21.368-20.503h10.632h115.931l45.12,45.11
	c1.367,1.367,3.158,2.05,4.949,2.05s3.583-0.684,4.95-2.05l45.11-45.11h115.94h10.627c11.782,0,21.368,9.198,21.368,20.503
	C411.997,361.743,391.779,381.249,366.928,381.249z"/>
<g>
</g>
<g>
</g>
<g>
</g>
<g>
</g>
<g>
</g>
<g>
</g>
<g>
</g>
<g>
</g>
<g>
</g>
<g>
</g>
<g>
</g>
<g>
</g>
<g>
</g>
<g>
</g>
<g>
</g>
</svg>
